<?xml version="1.0" encoding="UTF-8" ?>
<svg xmlns="http://www.w3.org/2000/svg" xmlns:xlink="http://www.w3.org/1999/xlink" width="749pt" height="456pt" viewBox="0.00 0.00 749.13 456.40">
<g id="graph0" class="graph" transform="scale(1 1) rotate(0) translate(4 452.4)">
<title>%0</title>
<polygon fill="#ffffff" stroke="transparent" points="-4,4 -4,-452.4 745.1257,-452.4 745.1257,4 -4,4"/>
<!-- ARB -->
<g id="node1" class="node">
<title>ARB</title>
<ellipse fill="none" stroke="#000000" cx="345.5829" cy="-430.4" rx="30.777" ry="18"/>
<text text-anchor="middle" x="345.5829" y="-426.2" font-family="Times,serif" font-size="14.00" fill="#000000">ARB</text>
</g>
<!-- DAO -->
<g id="node2" class="node">
<title>DAO</title>
<ellipse fill="none" stroke="#000000" cx="345.5829" cy="-341.6" rx="31.9012" ry="18"/>
<text text-anchor="middle" x="345.5829" y="-337.4" font-family="Times,serif" font-size="14.00" fill="#000000">DAO</text>
</g>
<!-- ARB&#45;&gt;DAO -->
<g id="edge1" class="edge">
<title>ARB-&gt;DAO</title>
<path fill="none" stroke="#000000" d="M345.5829,-412.0006C345.5829,-399.8949 345.5829,-383.8076 345.5829,-370.0674"/>
<polygon fill="#000000" stroke="#000000" points="349.083,-369.672 345.5829,-359.672 342.083,-369.6721 349.083,-369.672"/>
<text text-anchor="middle" x="399.6208" y="-381.8" font-family="Times,serif" font-size="14.00" fill="#000000">Create staked ARB</text>
</g>
<!-- Staked ARB -->
<g id="node3" class="node">
<title>Staked ARB</title>
<ellipse fill="none" stroke="#000000" cx="345.5829" cy="-252.8" rx="59.6699" ry="18"/>
<text text-anchor="middle" x="345.5829" y="-248.6" font-family="Times,serif" font-size="14.00" fill="#000000">Staked ARB</text>
</g>
<!-- DAO&#45;&gt;Staked ARB -->
<g id="edge2" class="edge">
<title>DAO-&gt;Staked ARB</title>
<path fill="none" stroke="#000000" d="M345.5829,-323.2006C345.5829,-311.0949 345.5829,-295.0076 345.5829,-281.2674"/>
<polygon fill="#000000" stroke="#000000" points="349.083,-280.872 345.5829,-270.872 342.083,-280.8721 349.083,-280.872"/>
<text text-anchor="middle" x="399.6208" y="-293" font-family="Times,serif" font-size="14.00" fill="#000000">Create staked ARB</text>
</g>
<!-- Caller -->
<g id="node4" class="node">
<title>Caller</title>
<ellipse fill="none" stroke="#000000" cx="345.5829" cy="-179.8" rx="34.7651" ry="18"/>
<text text-anchor="middle" x="345.5829" y="-175.6" font-family="Times,serif" font-size="14.00" fill="#000000">Caller</text>
</g>
<!-- Staked ARB&#45;&gt;Caller -->
<g id="edge3" class="edge">
<title>Staked ARB-&gt;Caller</title>
<path fill="none" stroke="#000000" d="M345.5829,-234.7551C345.5829,-226.6828 345.5829,-216.9764 345.5829,-207.9817"/>
<polygon fill="#000000" stroke="#000000" points="349.083,-207.8903 345.5829,-197.8904 342.083,-207.8904 349.083,-207.8903"/>
</g>
<!-- ARBUSD -->
<g id="node5" class="node">
<title>ARBUSD</title>
<ellipse fill="none" stroke="#000000" cx="430.5829" cy="-106.8" rx="50.3994" ry="18"/>
<text text-anchor="middle" x="430.5829" y="-102.6" font-family="Times,serif" font-size="14.00" fill="#000000">ARBUSD</text>
</g>
<!-- Caller&#45;&gt;ARBUSD -->
<g id="edge4" class="edge">
<title>Caller-&gt;ARBUSD</title>
<path fill="none" stroke="#000000" d="M363.6092,-164.3186C375.1512,-154.4061 390.3463,-141.3562 403.3449,-130.1927"/>
<polygon fill="#000000" stroke="#000000" points="405.7963,-132.701 411.1022,-123.5305 401.2356,-127.3906 405.7963,-132.701"/>
</g>
<!-- Debt NFT -->
<g id="node7" class="node">
<title>Debt NFT</title>
<ellipse fill="none" stroke="#000000" cx="260.5829" cy="-18" rx="50.4201" ry="18"/>
<text text-anchor="middle" x="260.5829" y="-13.8" font-family="Times,serif" font-size="14.00" fill="#000000">Debt NFT</text>
</g>
<!-- Caller&#45;&gt;Debt NFT -->
<g id="edge9" class="edge">
<title>Caller-&gt;Debt NFT</title>
<path fill="none" stroke="#000000" d="M312.6018,-174.2994C266.3225,-165.8319 185.8306,-148.1107 168.6663,-124.8 145.2984,-93.0642 187.7437,-58.9756 222.4228,-38.0638"/>
<polygon fill="#000000" stroke="#000000" points="224.6039,-40.8438 231.4812,-32.7844 221.0791,-34.7959 224.6039,-40.8438"/>
<text text-anchor="middle" x="212.5412" y="-102.6" font-family="Times,serif" font-size="14.00" fill="#000000">Repays interest</text>
</g>
<!-- Protocol -->
<g id="node8" class="node">
<title>Protocol</title>
<ellipse fill="none" stroke="#000000" cx="644.5829" cy="-18" rx="43.5194" ry="18"/>
<text text-anchor="middle" x="644.5829" y="-13.8" font-family="Times,serif" font-size="14.00" fill="#000000">Protocol</text>
</g>
<!-- Caller&#45;&gt;Protocol -->
<g id="edge12" class="edge">
<title>Caller-&gt;Protocol</title>
<path fill="none" stroke="#000000" d="M379.4357,-175.3582C439.948,-166.9556 563.7827,-147.524 600.5829,-124.8 628.1574,-107.7729 637.9107,-101.0329 649.5829,-70.8 652.5676,-63.0692 652.8357,-54.2483 651.9284,-46.0592"/>
<polygon fill="#000000" stroke="#000000" points="655.373,-45.4369 650.2666,-36.1539 648.4695,-46.5952 655.373,-45.4369"/>
<text text-anchor="middle" x="691.3543" y="-102.6" font-family="Times,serif" font-size="14.00" fill="#000000">Inputs to protocol</text>
</g>
<!-- Debt NFT -->
<g id="node6" class="node">
<title>Debt NFT</title>
<ellipse fill="none" stroke="#000000" cx="59.5829" cy="-18" rx="59.666" ry="18"/>
<text text-anchor="middle" x="59.5829" y="-13.8" font-family="Times,serif" font-size="14.00" fill="#000000">Debt NFT</text>
</g>
<!-- ARBUSD&#45;&gt;Debt NFT -->
<g id="edge5" class="edge">
<title>ARBUSD-&gt;Debt NFT</title>
<path fill="none" stroke="#000000" d="M391.4005,-95.4622C383.219,-93.1841 374.6341,-90.8593 366.5829,-88.8 342.6423,-82.6765 199.5212,-49.9181 117.4104,-31.1798"/>
<polygon fill="#000000" stroke="#000000" points="117.9957,-27.7235 107.4676,-28.9113 116.4385,-34.5481 117.9957,-27.7235"/>
<text text-anchor="middle" x="332.4262" y="-58.2" font-family="Times,serif" font-size="14.00" fill="#000000">Collects revenue</text>
</g>
<!-- ARBUSD&#45;&gt;Debt NFT -->
<g id="edge7" class="edge">
<title>ARBUSD-&gt;Debt NFT</title>
<path fill="none" stroke="#000000" d="M420.458,-88.9369C413.0369,-77.3782 401.9481,-62.8812 388.5829,-54 367.7315,-40.1442 341.5749,-31.5672 318.3504,-26.2831"/>
<polygon fill="#000000" stroke="#000000" points="318.7673,-22.7939 308.2592,-24.1471 317.3177,-29.6421 318.7673,-22.7939"/>
<text text-anchor="middle" x="457.7116" y="-58.2" font-family="Times,serif" font-size="14.00" fill="#000000">Sends a debt USD</text>
</g>
<!-- ARBUSD&#45;&gt;Protocol -->
<g id="edge10" class="edge">
<title>ARBUSD-&gt;Protocol</title>
<path fill="none" stroke="#000000" d="M464.8004,-93.504C479.7854,-87.2449 497.381,-79.2927 512.5829,-70.8 524.0398,-64.3996 525.129,-59.8718 536.8655,-54 556.0114,-44.4213 578.2929,-36.4921 597.6063,-30.5361"/>
<polygon fill="#000000" stroke="#000000" points="598.827,-33.8242 607.4031,-27.6032 596.8194,-27.1183 598.827,-33.8242"/>
<text text-anchor="middle" x="584.4416" y="-58.2" font-family="Times,serif" font-size="14.00" fill="#000000">Sends ARBUSD</text>
</g>
<!-- Debt NFT&#45;&gt;Caller -->
<g id="edge6" class="edge">
<title>Debt NFT-&gt;Caller</title>
<path fill="none" stroke="#000000" d="M48.9726,-35.725C36.6251,-58.9104 20.4506,-99.5447 41.5471,-124.8 74.0213,-163.6758 224.063,-175.1255 300.5235,-178.4572"/>
<polygon fill="#000000" stroke="#000000" points="300.6701,-181.966 310.8041,-178.8754 300.9547,-174.9717 300.6701,-181.966"/>
<text text-anchor="middle" x="100.1008" y="-102.6" font-family="Times,serif" font-size="14.00" fill="#000000">Sends a Debt NFT</text>
</g>
<!-- Debt NFT&#45;&gt;Caller -->
<g id="edge8" class="edge">
<title>Debt NFT-&gt;Caller</title>
<path fill="none" stroke="#000000" d="M257.663,-36.3408C255.0415,-58.7502 253.6896,-97.0955 269.3255,-124.8 278.5808,-141.199 294.9797,-153.9868 310.2047,-163.088"/>
<polygon fill="#000000" stroke="#000000" points="308.5389,-166.1667 318.9704,-168.0201 311.9715,-160.0661 308.5389,-166.1667"/>
<text text-anchor="middle" x="320.7116" y="-102.6" font-family="Times,serif" font-size="14.00" fill="#000000">Sends a debt USD</text>
</g>
<!-- Protocol&#45;&gt;Caller -->
<g id="edge11" class="edge">
<title>Protocol-&gt;Caller</title>
<path fill="none" stroke="#000000" d="M643.8624,-36.1054C642.5151,-47.325 639.0774,-61.3485 630.5829,-70.8 567.0185,-141.5262 452.468,-166.6592 389.6875,-175.3642"/>
<polygon fill="#000000" stroke="#000000" points="389.1632,-171.9029 379.7016,-176.6703 390.071,-178.8438 389.1632,-171.9029"/>
</g>
</g>
</svg>